<svg width="21" height="22" viewBox="0 0 21 22" fill="none" xmlns="http://www.w3.org/2000/svg">
<path d="M10.71 3.65774C10.71 3.27897 10.4279 2.97192 10.08 2.97192C9.73204 2.97192 9.44998 3.27897 9.44998 3.65774L9.44998 10.2873H3.35998C3.01204 10.2873 2.72998 10.5943 2.72998 10.9731C2.72998 11.3518 3.01204 11.6589 3.35998 11.6589H9.44998V18.2884C9.44998 18.6672 9.73204 18.9742 10.08 18.9742C10.4279 18.9742 10.71 18.6672 10.71 18.2884V11.6589H16.8C17.1479 11.6589 17.43 11.3518 17.43 10.9731C17.43 10.5943 17.1479 10.2873 16.8 10.2873H10.71L10.71 3.65774Z" fill="white"/>
</svg>
