<svg width="24" height="24" viewBox="0 0 24 24" fill="none" xmlns="http://www.w3.org/2000/svg">
<path d="M6.25176 6.25176C6.33137 6.17196 6.42593 6.10864 6.53004 6.06544C6.63416 6.02224 6.74577 6 6.85849 6C6.97121 6 7.08282 6.02224 7.18693 6.06544C7.29104 6.10864 7.38561 6.17196 7.46521 6.25176L12.0002 10.7885L16.5352 6.25176C16.6149 6.17209 16.7095 6.10888 16.8136 6.06576C16.9177 6.02264 17.0293 6.00045 17.142 6.00045C17.2546 6.00045 17.3662 6.02264 17.4703 6.06576C17.5744 6.10888 17.669 6.17209 17.7487 6.25176C17.8284 6.33144 17.8916 6.42603 17.9347 6.53013C17.9778 6.63423 18 6.74581 18 6.85849C18 6.97117 17.9778 7.08274 17.9347 7.18685C17.8916 7.29095 17.8284 7.38554 17.7487 7.46521L13.212 12.0002L17.7487 16.5352C17.8284 16.6149 17.8916 16.7095 17.9347 16.8136C17.9778 16.9177 18 17.0293 18 17.142C18 17.2546 17.9778 17.3662 17.9347 17.4703C17.8916 17.5744 17.8284 17.669 17.7487 17.7487C17.669 17.8284 17.5744 17.8916 17.4703 17.9347C17.3662 17.9778 17.2546 18 17.142 18C17.0293 18 16.9177 17.9778 16.8136 17.9347C16.7095 17.8916 16.6149 17.8284 16.5352 17.7487L12.0002 13.212L7.46521 17.7487C7.38554 17.8284 7.29095 17.8916 7.18685 17.9347C7.08274 17.9778 6.97117 18 6.85849 18C6.74581 18 6.63423 17.9778 6.53013 17.9347C6.42603 17.8916 6.33144 17.8284 6.25176 17.7487C6.17209 17.669 6.10888 17.5744 6.06576 17.4703C6.02264 17.3662 6.00045 17.2546 6.00045 17.142C6.00045 17.0293 6.02264 16.9177 6.06576 16.8136C6.10888 16.7095 6.17209 16.6149 6.25176 16.5352L10.7885 12.0002L6.25176 7.46521C6.17196 7.38561 6.10864 7.29104 6.06544 7.18693C6.02224 7.08282 6 6.97121 6 6.85849C6 6.74577 6.02224 6.63416 6.06544 6.53004C6.10864 6.42593 6.17196 6.33137 6.25176 6.25176Z" fill="#111111"/>
</svg>
