<svg width="20" height="26" viewBox="0 0 20 26" fill="none" xmlns="http://www.w3.org/2000/svg">
<path d="M0 7C0 4.79086 1.79086 3 4 3H16C18.2091 3 20 4.79086 20 7V19C20 21.2091 18.2091 23 16 23H4C1.79086 23 0 21.2091 0 19V7Z" fill="#1677FF"/>
<path d="M5.91308 12.0352H5.91326C5.99256 12.0353 6.07081 12.0533 6.14213 12.088C6.21341 12.1226 6.27591 12.173 6.32497 12.2352L5.91308 12.0352ZM5.91308 12.0352H5.09394C4.89031 12.0352 4.7766 12.2698 4.90232 12.4292L4.90237 12.4293L8.11214 16.4957L8.11218 16.4957C8.32247 16.7619 8.72568 16.7611 8.93667 16.4962L8.93708 16.4957L14.6597 9.24398C14.6598 9.24378 14.66 9.24358 14.6602 9.24338C14.7884 9.08295 14.6699 8.85 14.4689 8.85H13.6498C13.4894 8.85 13.3367 8.9235 13.2376 9.05044C13.2375 9.05055 13.2374 9.05066 13.2373 9.05077L8.52403 15.0216M5.91308 12.0352L8.52403 15.0216M8.52403 15.0216L6.32506 12.2353L8.52403 15.0216Z" fill="white" stroke="white" stroke-width="0.3"/>
</svg>
