<svg width="28" height="28" viewBox="0 0 28 28" fill="none" xmlns="http://www.w3.org/2000/svg">
<path fill-rule="evenodd" clip-rule="evenodd" d="M28 14C28 21.732 21.732 28 14 28C6.26801 28 0 21.732 0 14C0 6.26801 6.26801 0 14 0C21.732 0 28 6.26801 28 14Z" fill="#F2F2F2"/>
<path d="M17.3792 14.2917C17.236 14.9922 16.9057 15.6409 16.4235 16.1688C15.9412 16.6967 15.3249 17.0841 14.6401 17.2899C13.9553 17.4957 13.2276 17.5121 12.5342 17.3374C11.8408 17.1628 11.2077 16.8036 10.7021 16.298C10.1965 15.7924 9.83728 15.1592 9.66262 14.4659C9.48797 13.7725 9.50439 13.0447 9.71015 12.3599C9.91592 11.6751 10.3033 11.0589 10.8312 10.5766C11.3591 10.0943 12.0078 9.76404 12.7084 9.62085" stroke="#248AFF" stroke-width="2" stroke-linecap="round" stroke-linejoin="round"/>
<path d="M13.7613 6.375H13.5C12.0908 6.375 10.7133 6.79287 9.54157 7.57578C8.36987 8.35868 7.45664 9.47146 6.91736 10.7734C6.37809 12.0753 6.23699 13.5079 6.51191 14.89C6.78683 16.2721 7.46542 17.5417 8.46187 18.5381C9.45832 19.5346 10.7279 20.2132 12.11 20.4881C13.4921 20.763 14.9247 20.6219 16.2266 20.0826C17.5285 19.5434 18.6413 18.6301 19.4242 17.4584C20.2071 16.2867 20.625 14.9092 20.625 13.5C20.625 13.4129 20.625 13.3258 20.625 13.2388M15.875 11.125L13.8958 13.1042L15.875 11.125ZM15.875 8.75V11.125H18.25L20.625 8.75H18.25V6.375L15.875 8.75Z" stroke="#248AFF" stroke-width="2" stroke-linecap="round" stroke-linejoin="round"/>
</svg>
