<svg width="21" height="26" viewBox="0 0 21 26" fill="none" xmlns="http://www.w3.org/2000/svg">
<path d="M0 21.3371V18.8268H2.59649V10.041C2.59649 8.30473 3.13743 6.76219 4.2193 5.41335C5.30117 4.06451 6.7076 3.18048 8.4386 2.76127V1.88269C8.4386 1.35972 8.62814 0.915406 9.00723 0.549747C9.38632 0.184087 9.84589 0.000839601 10.386 2.85255e-06C10.926 -0.000833896 11.386 0.182414 11.766 0.549747C12.146 0.917079 12.3351 1.36139 12.3333 1.88269V2.76127C14.0643 3.17965 15.4708 4.06367 16.5526 5.41335C17.6345 6.76302 18.1754 8.30557 18.1754 10.041V18.8268H20.7719V21.3371H0ZM10.386 25.1025C9.67193 25.1025 9.06089 24.8569 8.55284 24.3657C8.0448 23.8745 7.79034 23.2834 7.78947 22.5922H12.9825C12.9825 23.2825 12.7284 23.8737 12.2204 24.3657C11.7123 24.8577 11.1009 25.1033 10.386 25.1025Z" fill="white"/>
</svg>
