<svg width="27" height="27" viewBox="0 0 27 27" fill="none" xmlns="http://www.w3.org/2000/svg">
<circle cx="13.5" cy="13.5" r="13.5" fill="white"/>
<path d="M19.625 5.25H10.25V22.75H19.625C20.1223 22.75 20.5992 22.5525 20.9508 22.2008C21.3025 21.8492 21.5 21.3723 21.5 20.875V7.125C21.5 6.62772 21.3025 6.15081 20.9508 5.79917C20.5992 5.44754 20.1223 5.25 19.625 5.25ZM17.75 19.625H14C13.8342 19.625 13.6753 19.5592 13.5581 19.4419C13.4408 19.3247 13.375 19.1658 13.375 19C13.375 18.8342 13.4408 18.6753 13.5581 18.5581C13.6753 18.4408 13.8342 18.375 14 18.375H17.75C17.9158 18.375 18.0747 18.4408 18.1919 18.5581C18.3092 18.6753 18.375 18.8342 18.375 19C18.375 19.1658 18.3092 19.3247 18.1919 19.4419C18.0747 19.5592 17.9158 19.625 17.75 19.625ZM19 17.125H12.75C12.5842 17.125 12.4253 17.0592 12.3081 16.9419C12.1908 16.8247 12.125 16.6658 12.125 16.5C12.125 16.3342 12.1908 16.1753 12.3081 16.0581C12.4253 15.9408 12.5842 15.875 12.75 15.875H19C19.1658 15.875 19.3247 15.9408 19.4419 16.0581C19.5592 16.1753 19.625 16.3342 19.625 16.5C19.625 16.6658 19.5592 16.8247 19.4419 16.9419C19.3247 17.0592 19.1658 17.125 19 17.125ZM19.625 11.5C19.625 11.9973 19.4275 12.4742 19.0758 12.8258C18.7242 13.1775 18.2473 13.375 17.75 13.375H14C13.5027 13.375 13.0258 13.1775 12.6742 12.8258C12.3225 12.4742 12.125 11.9973 12.125 11.5V10.25C12.125 9.75272 12.3225 9.27581 12.6742 8.92417C13.0258 8.57254 13.5027 8.375 14 8.375H17.75C18.2473 8.375 18.7242 8.57254 19.0758 8.92417C19.4275 9.27581 19.625 9.75272 19.625 10.25V11.5Z" fill="#57A5FF"/>
<path d="M9 5.25V22.75H8.375C7.87772 22.75 7.40081 22.5525 7.04917 22.2008C6.69754 21.8492 6.5 21.3723 6.5 20.875V7.125C6.5 6.62772 6.69754 6.15081 7.04917 5.79917C7.40081 5.44754 7.87772 5.25 8.375 5.25H9Z" fill="#57A5FF"/>
<path d="M17.75 9.625H14C13.6548 9.625 13.375 9.90482 13.375 10.25V11.5C13.375 11.8452 13.6548 12.125 14 12.125H17.75C18.0952 12.125 18.375 11.8452 18.375 11.5V10.25C18.375 9.90482 18.0952 9.625 17.75 9.625Z" fill="#57A5FF"/>
</svg>
