<svg width="24" height="24" viewBox="0 0 24 24" fill="none" xmlns="http://www.w3.org/2000/svg">
<path fill-rule="evenodd" clip-rule="evenodd" d="M11.9998 2.00098C6.47654 2.00098 1.99976 6.47776 1.99976 12.001C1.99976 17.5242 6.47654 22.001 11.9998 22.001C17.523 22.001 21.9998 17.5242 21.9998 12.001C21.9998 6.47776 17.523 2.00098 11.9998 2.00098ZM11.9996 3.5008C16.6944 3.5008 20.4996 7.30602 20.4996 12.0008C20.4996 16.6956 16.6944 20.5008 11.9996 20.5008C7.30484 20.5008 3.49963 16.6956 3.49963 12.0008C3.49963 7.30602 7.30484 3.5008 11.9996 3.5008ZM12.4043 7.74518C12.3547 7.37911 12.0409 7.09695 11.6612 7.09695C11.247 7.09695 10.9112 7.43274 10.9112 7.84695V12.694L10.9195 12.8057C10.9527 13.0257 11.0825 13.2221 11.2769 13.3381L15.0469 15.587L15.1378 15.6333C15.4777 15.7782 15.8807 15.6533 16.0753 15.3272L16.1215 15.2363C16.2664 14.8965 16.1415 14.4934 15.8154 14.2989L12.4108 12.2671L12.4112 7.84695L12.4043 7.74518Z" fill="#707070"/>
</svg>
