<svg width="25" height="25" viewBox="0 0 25 25" fill="none" xmlns="http://www.w3.org/2000/svg">
<path d="M8.19971 6.25C7.78971 6.25 7.44971 5.91 7.44971 5.5V2.5C7.44971 2.09 7.78971 1.75 8.19971 1.75C8.60971 1.75 8.94971 2.09 8.94971 2.5V5.5C8.94971 5.91 8.60971 6.25 8.19971 6.25Z" fill="black" fill-opacity="0.65"/>
<path d="M16.1997 6.25C15.7897 6.25 15.4497 5.91 15.4497 5.5V2.5C15.4497 2.09 15.7897 1.75 16.1997 1.75C16.6097 1.75 16.9497 2.09 16.9497 2.5V5.5C16.9497 5.91 16.6097 6.25 16.1997 6.25Z" fill="black" fill-opacity="0.65"/>
<path d="M8.69971 14.9998C8.56971 14.9998 8.43971 14.9698 8.31971 14.9198C8.18971 14.8698 8.08971 14.7998 7.98971 14.7098C7.80971 14.5198 7.69971 14.2698 7.69971 13.9998C7.69971 13.8698 7.72971 13.7398 7.77971 13.6198C7.82971 13.4998 7.89971 13.3898 7.98971 13.2898C8.08971 13.1998 8.18971 13.1298 8.31971 13.0798C8.67971 12.9298 9.12971 13.0098 9.40971 13.2898C9.58971 13.4798 9.69971 13.7398 9.69971 13.9998C9.69971 14.0598 9.68971 14.1298 9.67971 14.1998C9.66971 14.2598 9.64971 14.3198 9.61971 14.3798C9.59971 14.4398 9.56971 14.4998 9.52971 14.5598C9.49971 14.6098 9.44971 14.6598 9.40971 14.7098C9.21971 14.8898 8.95971 14.9998 8.69971 14.9998Z" fill="#292D32"/>
<path d="M12.1997 14.9999C12.0697 14.9999 11.9397 14.9699 11.8197 14.9199C11.6897 14.8699 11.5897 14.7999 11.4897 14.7099C11.3097 14.5199 11.1997 14.2699 11.1997 13.9999C11.1997 13.8699 11.2297 13.7399 11.2797 13.6199C11.3297 13.4999 11.3997 13.3899 11.4897 13.2899C11.5897 13.1999 11.6897 13.1299 11.8197 13.0799C12.1797 12.9199 12.6297 13.0099 12.9097 13.2899C13.0897 13.4799 13.1997 13.7399 13.1997 13.9999C13.1997 14.0599 13.1897 14.1299 13.1797 14.1999C13.1697 14.2599 13.1497 14.3199 13.1197 14.3799C13.0997 14.4399 13.0697 14.4999 13.0297 14.5599C12.9997 14.6099 12.9497 14.6599 12.9097 14.7099C12.7197 14.8899 12.4597 14.9999 12.1997 14.9999Z" fill="#292D32"/>
<path d="M15.6997 14.9999C15.5697 14.9999 15.4397 14.9699 15.3197 14.9199C15.1897 14.8699 15.0897 14.7999 14.9897 14.7099C14.9497 14.6599 14.9097 14.6099 14.8697 14.5599C14.8297 14.4999 14.7997 14.4399 14.7797 14.3799C14.7497 14.3199 14.7297 14.2599 14.7197 14.1999C14.7097 14.1299 14.6997 14.0599 14.6997 13.9999C14.6997 13.7399 14.8097 13.4799 14.9897 13.2899C15.0897 13.1999 15.1897 13.1299 15.3197 13.0799C15.6897 12.9199 16.1297 13.0099 16.4097 13.2899C16.5897 13.4799 16.6997 13.7399 16.6997 13.9999C16.6997 14.0599 16.6897 14.1299 16.6797 14.1999C16.6697 14.2599 16.6497 14.3199 16.6197 14.3799C16.5997 14.4399 16.5697 14.4999 16.5297 14.5599C16.4997 14.6099 16.4497 14.6599 16.4097 14.7099C16.2197 14.8899 15.9597 14.9999 15.6997 14.9999Z" fill="#292D32"/>
<path d="M8.69971 18.5002C8.56971 18.5002 8.43971 18.4702 8.31971 18.4202C8.19971 18.3702 8.08971 18.3002 7.98971 18.2102C7.80971 18.0202 7.69971 17.7602 7.69971 17.5002C7.69971 17.3702 7.72971 17.2402 7.77971 17.1202C7.82971 16.9902 7.89971 16.8802 7.98971 16.7902C8.35971 16.4202 9.03971 16.4202 9.40971 16.7902C9.58971 16.9802 9.69971 17.2402 9.69971 17.5002C9.69971 17.7602 9.58971 18.0202 9.40971 18.2102C9.21971 18.3902 8.95971 18.5002 8.69971 18.5002Z" fill="#292D32"/>
<path d="M12.1997 18.5002C11.9397 18.5002 11.6797 18.3902 11.4897 18.2102C11.3097 18.0202 11.1997 17.7602 11.1997 17.5002C11.1997 17.3702 11.2297 17.2402 11.2797 17.1202C11.3297 16.9902 11.3997 16.8802 11.4897 16.7902C11.8597 16.4202 12.5397 16.4202 12.9097 16.7902C12.9997 16.8802 13.0697 16.9902 13.1197 17.1202C13.1697 17.2402 13.1997 17.3702 13.1997 17.5002C13.1997 17.7602 13.0897 18.0202 12.9097 18.2102C12.7197 18.3902 12.4597 18.5002 12.1997 18.5002Z" fill="#292D32"/>
<path d="M15.6997 18.4999C15.4397 18.4999 15.1797 18.3899 14.9897 18.2099C14.8997 18.1199 14.8297 18.0099 14.7797 17.8799C14.7297 17.7599 14.6997 17.6299 14.6997 17.4999C14.6997 17.3699 14.7297 17.2399 14.7797 17.1199C14.8297 16.9899 14.8997 16.8799 14.9897 16.7899C15.2197 16.5599 15.5697 16.4499 15.8897 16.5199C15.9597 16.5299 16.0197 16.5499 16.0797 16.5799C16.1397 16.5999 16.1997 16.6299 16.2597 16.6699C16.3097 16.6999 16.3597 16.7499 16.4097 16.7899C16.5897 16.9799 16.6997 17.2399 16.6997 17.4999C16.6997 17.7599 16.5897 18.0199 16.4097 18.2099C16.2197 18.3899 15.9597 18.4999 15.6997 18.4999Z" fill="#292D32"/>
<path d="M20.6997 10.3398H3.69971C3.28971 10.3398 2.94971 9.99984 2.94971 9.58984C2.94971 9.17984 3.28971 8.83984 3.69971 8.83984H20.6997C21.1097 8.83984 21.4497 9.17984 21.4497 9.58984C21.4497 9.99984 21.1097 10.3398 20.6997 10.3398Z" fill="#292D32"/>
<path d="M16.1997 23.25H8.19971C4.54971 23.25 2.44971 21.15 2.44971 17.5V9C2.44971 5.35 4.54971 3.25 8.19971 3.25H16.1997C19.8497 3.25 21.9497 5.35 21.9497 9V17.5C21.9497 21.15 19.8497 23.25 16.1997 23.25ZM8.19971 4.75C5.33971 4.75 3.94971 6.14 3.94971 9V17.5C3.94971 20.36 5.33971 21.75 8.19971 21.75H16.1997C19.0597 21.75 20.4497 20.36 20.4497 17.5V9C20.4497 6.14 19.0597 4.75 16.1997 4.75H8.19971Z" fill="#292D32"/>
</svg>
