<svg width="28" height="28" viewBox="0 0 28 28" fill="none" xmlns="http://www.w3.org/2000/svg">
<path fill-rule="evenodd" clip-rule="evenodd" d="M28 14C28 21.732 21.732 28 14 28C6.26801 28 0 21.732 0 14C0 6.26801 6.26801 0 14 0C21.732 0 28 6.26801 28 14Z" fill="#F2F2F2"/>
<path d="M8.9184 19.0814H19.8073C20.2082 19.0814 20.5332 19.4064 20.5332 19.8073C20.5332 20.2082 20.2082 20.5332 19.8073 20.5332H8.19248C7.79156 20.5332 7.46655 20.2082 7.46655 19.8073V8.19248C7.46655 7.79156 7.79156 7.46655 8.19248 7.46655C8.5934 7.46655 8.9184 7.79156 8.9184 8.19248V19.0814Z" fill="#8F57FF"/>
<path opacity="0.5" d="M11.6259 15.9483C11.3517 16.2408 10.8923 16.2556 10.5998 15.9814C10.3073 15.7072 10.2925 15.2478 10.5667 14.9553L13.2889 12.0516C13.5541 11.7687 13.9948 11.7442 14.2897 11.9959L16.4383 13.8293L19.2376 10.2835C19.4861 9.96879 19.9425 9.91509 20.2572 10.1635C20.5719 10.4119 20.6256 10.8684 20.3772 11.1831L17.1105 15.3209C16.8553 15.6441 16.3828 15.6905 16.0695 15.4233L13.8743 13.55L11.6259 15.9483Z" fill="#8F57FF"/>
</svg>
