<svg width="27" height="27" viewBox="0 0 27 27" fill="none" xmlns="http://www.w3.org/2000/svg">
<circle cx="13.5" cy="13.5" r="13.5" fill="white"/>
<path d="M15.375 6H11.625C10.962 6 10.3261 6.26339 9.85723 6.73223C9.38839 7.20107 9.125 7.83696 9.125 8.5V9.75H10.375V8.5C10.375 8.16848 10.5067 7.85054 10.7411 7.61612C10.9755 7.3817 11.2935 7.25 11.625 7.25H15.375C15.7065 7.25 16.0245 7.3817 16.2589 7.61612C16.4933 7.85054 16.625 8.16848 16.625 8.5V9.75H17.875V8.5C17.875 7.83696 17.6116 7.20107 17.1428 6.73223C16.6739 6.26339 16.038 6 15.375 6Z" fill="#57A5FF"/>
<path d="M21 12.8748C21 13.7036 20.6708 14.4985 20.0847 15.0845C19.4987 15.6706 18.7038 15.9998 17.875 15.9998H9.125C8.46912 15.9998 7.82986 15.7935 7.29778 15.41C6.7657 15.0265 6.36777 14.4853 6.16036 13.863C5.95296 13.2408 5.94658 12.5691 6.14215 11.9431C6.33771 11.317 6.72529 10.7684 7.25 10.3748C7.61904 10.0957 8.04632 9.90339 8.5 9.81233C8.70551 9.76927 8.91503 9.74832 9.125 9.74983H17.875C18.085 9.74832 18.2945 9.76927 18.5 9.81233C18.9537 9.90339 19.381 10.0957 19.75 10.3748C20.1381 10.6659 20.4531 11.0434 20.6701 11.4773C20.887 11.9112 21 12.3897 21 12.8748Z" fill="#57A5FF"/>
<path d="M17.875 17.2499C18.4574 17.2492 19.0339 17.1321 19.5705 16.9057C20.1071 16.6792 20.5931 16.3479 21 15.9312V17.8749C21 18.7037 20.6708 19.4986 20.0847 20.0846C19.4987 20.6707 18.7038 20.9999 17.875 20.9999H9.125C8.2962 20.9999 7.50134 20.6707 6.91529 20.0846C6.32924 19.4986 6 18.7037 6 17.8749V15.9312C6.40688 16.3479 6.89288 16.6792 7.4295 16.9057C7.96612 17.1321 8.54256 17.2492 9.125 17.2499H17.875Z" fill="#57A5FF"/>
</svg>
