<svg width="20" height="20" viewBox="0 0 20 20" fill="none" xmlns="http://www.w3.org/2000/svg">
<path d="M9.3193 15.3463L10.9443 15.3425L10.9337 10.7384L15.5379 10.7278L15.5341 9.10277L10.93 9.11336L10.9194 4.50921L9.29437 4.51295L9.30497 9.1171L4.70081 9.1277L4.70455 10.7527L9.30871 10.7421L9.3193 15.3463ZM2.0168 19.6964C1.58346 19.6974 1.20392 19.5358 0.878177 19.2115C0.55243 18.8873 0.389058 18.5085 0.388061 18.0751L0.350664 1.82519C0.349666 1.39186 0.511293 1.01232 0.835545 0.686572C1.1598 0.360825 1.53859 0.197453 1.97192 0.196456L18.2219 0.159059C18.6552 0.158061 19.0347 0.319688 19.3605 0.64394C19.6862 0.968191 19.8496 1.34698 19.8506 1.78031L19.888 18.0303C19.889 18.4636 19.7274 18.8431 19.4031 19.1689C19.0789 19.4946 18.7001 19.658 18.2668 19.659L2.0168 19.6964ZM2.01306 18.0714L18.263 18.034L18.2256 1.78405L1.97566 1.82145L2.01306 18.0714ZM1.97566 1.82145L2.01306 18.0714L1.97566 1.82145Z" fill="white"/>
</svg>
