<svg width="36" height="37" viewBox="0 0 36 37" fill="none" xmlns="http://www.w3.org/2000/svg">
<path d="M30.375 18.1145H30.165C29.3025 14.1524 25.86 11.177 21.75 11.177H19.125V10.1903C20.43 9.71243 21.375 8.44056 21.375 6.93743C21.375 5.02577 19.86 3.46868 18 3.46868C16.14 3.46868 14.625 5.02577 14.625 6.93743C14.625 8.44056 15.57 9.71243 16.875 10.1903V11.177H14.25C10.14 11.177 6.6975 14.1524 5.835 18.1145H5.625C4.3875 18.1145 3.375 19.1551 3.375 20.427V22.7395C3.375 24.0114 4.3875 25.052 5.625 25.052H6.0375C6.9225 27.8887 9.1575 30.0933 11.9625 30.8949C11.7525 31.3497 11.625 31.8431 11.625 32.3749C11.625 33.0147 12.1275 33.5312 12.75 33.5312H23.25C23.8725 33.5312 24.375 33.0147 24.375 32.3749C24.375 31.8431 24.2475 31.342 24.0375 30.8949C26.8425 30.101 29.0775 27.8887 29.9625 25.052H30.375C31.6125 25.052 32.625 24.0114 32.625 22.7395V20.427C32.625 19.1551 31.6125 18.1145 30.375 18.1145ZM18 5.78118C18.6225 5.78118 19.125 6.29764 19.125 6.93743C19.125 7.57722 18.6225 8.09368 18 8.09368C17.3775 8.09368 16.875 7.57722 16.875 6.93743C16.875 6.29764 17.3775 5.78118 18 5.78118ZM21.75 28.9062H14.25C10.7325 28.9062 7.875 25.9693 7.875 22.3541V20.0416C7.875 16.4264 10.7325 13.4895 14.25 13.4895H21.75C25.2675 13.4895 28.125 16.4264 28.125 20.0416V22.3541C28.125 25.9693 25.2675 28.9062 21.75 28.9062Z" fill="#F1F1FA"/>
<path d="M13.875 16.5728C12.6375 16.5728 11.625 17.6135 11.625 18.8853V21.1978C11.625 22.4697 12.6375 23.5103 13.875 23.5103C15.1125 23.5103 16.125 22.4697 16.125 21.1978V18.8853C16.125 17.6135 15.1125 16.5728 13.875 16.5728Z" fill="#F1F1FA"/>
<path d="M22.125 16.5728C20.8875 16.5728 19.875 17.6135 19.875 18.8853V21.1978C19.875 22.4697 20.8875 23.5103 22.125 23.5103C23.3625 23.5103 24.375 22.4697 24.375 21.1978V18.8853C24.375 17.6135 23.3625 16.5728 22.125 16.5728Z" fill="#F1F1FA"/>
<path d="M10.1475 5.71952L12.3975 6.49035C12.5175 6.52889 12.6375 6.55202 12.75 6.55202C13.2225 6.55202 13.6575 6.24368 13.815 5.75806C14.01 5.1491 13.695 4.49389 13.1025 4.29347L10.8525 3.52264C10.2675 3.32222 9.63 3.64597 9.4275 4.25493C9.225 4.86389 9.5475 5.5191 10.14 5.71952H10.1475Z" fill="#F1F1FA"/>
<path d="M10.5 10.4062C10.62 10.4062 10.74 10.3908 10.8525 10.3445L13.1025 9.57368C13.695 9.37326 14.01 8.71806 13.815 8.1091C13.62 7.50014 12.9825 7.17639 12.39 7.37681L10.14 8.14764C9.5475 8.34806 9.2325 9.00326 9.4275 9.61222C9.585 10.0978 10.02 10.4062 10.4925 10.4062H10.5Z" fill="#F1F1FA"/>
<path d="M23.25 6.55202C23.37 6.55202 23.49 6.5366 23.6025 6.49035L25.8525 5.71952C26.445 5.5191 26.76 4.86389 26.565 4.25493C26.37 3.64597 25.7325 3.32222 25.14 3.52264L22.89 4.29347C22.2975 4.49389 21.9825 5.1491 22.1775 5.75806C22.335 6.24368 22.77 6.55202 23.2425 6.55202H23.25Z" fill="#F1F1FA"/>
<path d="M22.8975 9.57368L25.1475 10.3445C25.2675 10.3831 25.3875 10.4062 25.5 10.4062C25.9725 10.4062 26.4075 10.0978 26.565 9.61222C26.76 9.00326 26.445 8.34806 25.8525 8.14764L23.6025 7.37681C23.0175 7.17639 22.3725 7.50014 22.1775 8.1091C21.9825 8.71806 22.2975 9.37326 22.89 9.57368H22.8975Z" fill="#F1F1FA"/>
</svg>
