<svg width="21" height="22" viewBox="0 0 21 22" fill="none" xmlns="http://www.w3.org/2000/svg">
<path d="M15.6419 6.17958C15.9066 5.90859 15.9193 5.49185 15.6704 5.24875C15.4214 5.00566 15.0051 5.02827 14.7405 5.29925L10.1086 10.0423L5.75159 5.78739C5.50266 5.5443 5.08633 5.56691 4.8217 5.83789C4.55707 6.10887 4.54434 6.52562 4.79328 6.76871L9.15033 11.0236L4.51848 15.7667C4.25385 16.0376 4.24112 16.4544 4.49005 16.6975C4.73898 16.9406 5.15531 16.918 5.41994 16.647L10.0518 11.9039L14.4088 16.1588C14.6578 16.4019 15.0741 16.3793 15.3387 16.1083C15.6034 15.8374 15.6161 15.4206 15.3672 15.1775L11.0101 10.9226L15.6419 6.17958Z" fill="white"/>
</svg>
