<svg width="200" height="125" viewBox="0 0 200 125" fill="none" xmlns="http://www.w3.org/2000/svg">
<rect width="199.458" height="125" fill="white" fill-opacity="0.01"/>
<path d="M100 117.415C149.706 117.415 190 108.666 190 97.8739C190 87.0815 149.706 78.3325 100 78.3325C50.2949 78.3325 10.0005 87.0815 10.0005 97.8739C10.0005 108.666 50.2949 117.415 100 117.415Z" fill="#F5F5F5"/>
<path d="M164.687 44.1836L136.151 12.0744C134.781 9.88573 132.782 8.5625 130.675 8.5625H69.3231C67.2165 8.5625 65.2168 9.88573 63.8471 12.0716L35.3115 44.1864V69.9782H164.687V44.1836Z" stroke="#CED4DA" stroke-width="2.8125"/>
<path d="M127.036 53.036C127.036 48.5554 129.831 44.8566 133.299 44.8538H164.687V95.4854C164.687 101.412 160.974 106.269 156.39 106.269H43.6084C39.024 106.269 35.3115 101.409 35.3115 95.4854V44.8538H66.699C70.1668 44.8538 72.9625 48.5471 72.9625 53.0276V53.089C72.9625 57.5696 75.789 61.1875 79.254 61.1875H120.744C124.209 61.1875 127.036 57.5361 127.036 53.0555V53.036V53.036Z" fill="#FAFAFA" stroke="#CED4DA" stroke-width="2.8125"/>
</svg>
