<svg width="19" height="19" viewBox="0 0 19 19" fill="none" xmlns="http://www.w3.org/2000/svg">
<path d="M13.379 10.2917C13.2358 10.9922 12.9055 11.6409 12.4232 12.1688C11.9409 12.6967 11.3247 13.0841 10.6399 13.2899C9.95508 13.4957 9.22734 13.5121 8.53396 13.3374C7.84058 13.1628 7.20746 12.8036 6.70185 12.298C6.19624 11.7924 5.83703 11.1592 5.66238 10.4659C5.48772 9.77248 5.50415 9.04474 5.70991 8.35994C5.91567 7.67515 6.30308 7.05888 6.83099 6.5766C7.35889 6.09432 8.00758 5.76404 8.70813 5.62085" stroke="#248AFF" stroke-width="2" stroke-linecap="round" stroke-linejoin="round"/>
<path d="M9.76125 2.375H9.5C8.09081 2.375 6.71327 2.79287 5.54157 3.57578C4.36987 4.35868 3.45664 5.47146 2.91736 6.77338C2.37809 8.0753 2.23699 9.5079 2.51191 10.89C2.78683 12.2721 3.46542 13.5417 4.46187 14.5381C5.45832 15.5346 6.72787 16.2132 8.10999 16.4881C9.4921 16.763 10.9247 16.6219 12.2266 16.0826C13.5285 15.5434 14.6413 14.6301 15.4242 13.4584C16.2071 12.2867 16.625 10.9092 16.625 9.5C16.625 9.41292 16.625 9.32583 16.625 9.23875M11.875 7.125L9.89584 9.10417L11.875 7.125ZM11.875 4.75V7.125H14.25L16.625 4.75H14.25V2.375L11.875 4.75Z" stroke="#248AFF" stroke-width="2" stroke-linecap="round" stroke-linejoin="round"/>
</svg>
