<svg width="24" height="23" viewBox="0 0 24 23" fill="none" xmlns="http://www.w3.org/2000/svg">
<path d="M11.938 4.46901C11.87 4.40617 11.7796 4.37109 11.6856 4.37109C11.5916 4.37109 11.5011 4.40617 11.4332 4.46901L3.03061 12.2293C2.99492 12.2623 2.96653 12.302 2.94716 12.3459C2.92778 12.3898 2.91782 12.4371 2.91787 12.4848L2.9165 19.7682C2.9165 20.1427 3.07038 20.5018 3.34428 20.7666C3.61818 21.0314 3.98967 21.1802 4.37703 21.1802H8.76317C8.95685 21.1802 9.1426 21.1058 9.27955 20.9734C9.4165 20.841 9.49344 20.6614 9.49344 20.4742V14.4731C9.49344 14.3795 9.53191 14.2897 9.60038 14.2235C9.66886 14.1573 9.76173 14.1201 9.85857 14.1201H13.5099C13.6067 14.1201 13.6996 14.1573 13.7681 14.2235C13.8365 14.2897 13.875 14.3795 13.875 14.4731V20.4742C13.875 20.6614 13.952 20.841 14.0889 20.9734C14.2259 21.1058 14.4116 21.1802 14.6053 21.1802H18.9896C19.377 21.1802 19.7484 21.0314 20.0223 20.7666C20.2962 20.5018 20.4501 20.1427 20.4501 19.7682V12.4848C20.4502 12.4371 20.4402 12.3898 20.4208 12.3459C20.4015 12.302 20.3731 12.2623 20.3374 12.2293L11.938 4.46901Z" fill="#282828"/>
<path d="M22.4058 10.7733L18.9918 7.6157V2.82412C18.9918 2.63688 18.9149 2.4573 18.778 2.3249C18.641 2.1925 18.4553 2.11812 18.2616 2.11812H16.0708C15.8771 2.11812 15.6914 2.1925 15.5544 2.3249C15.4175 2.4573 15.3405 2.63688 15.3405 2.82412V4.23614L12.697 1.79247C12.4496 1.55066 12.0817 1.41211 11.6842 1.41211C11.288 1.41211 10.9211 1.55066 10.6737 1.79291L0.965752 10.7724C0.681862 11.0372 0.646262 11.4727 0.904592 11.7595C0.969463 11.8319 1.04889 11.8908 1.13805 11.9326C1.2272 11.9743 1.32422 11.9981 1.42319 12.0025C1.52216 12.0069 1.62102 11.9918 1.71374 11.958C1.80647 11.9243 1.89113 11.8727 1.96256 11.8063L11.4332 3.0571C11.5011 2.99426 11.5915 2.95919 11.6856 2.95919C11.7796 2.95919 11.87 2.99426 11.938 3.0571L21.4095 11.8063C21.549 11.9356 21.7359 12.0062 21.9291 12.0026C22.1224 11.999 22.3063 11.9214 22.4405 11.7869C22.7207 11.5062 22.6975 11.0429 22.4058 10.7733Z" fill="#282828"/>
</svg>
