<svg width="43" height="41" viewBox="0 0 43 41" fill="none" xmlns="http://www.w3.org/2000/svg">
<g clip-path="url(#clip0_953_3578)">
<path d="M8.77258 6.78271H20.0527V8.11605H8.77196H7.77196V9.11605V32.4494V33.4494H8.77196H20.0527V34.7827H8.77196C8.05798 34.7827 7.48033 34.5514 6.98351 34.0794L6.30211 34.7967L6.98351 34.0794C6.48842 33.609 6.26413 33.0829 6.26318 32.4487V9.11605C6.26318 8.48412 6.48666 7.95892 6.9829 7.4883C7.48155 7.01538 8.05995 6.78365 8.77258 6.78271ZM28.0887 13.8463L35.3902 20.7827L28.0887 27.7191L27.0898 26.7184L30.8204 23.1744L32.6361 21.4494H30.1316H16.7895V20.116H30.1316H32.6361L30.8204 18.391L27.0898 14.847L28.0887 13.8463Z" fill="#FD3C4A" stroke="#FD3C4A" stroke-width="2"/>
</g>
<defs>
<clipPath id="clip0_953_3578">
<rect width="42.1053" height="40" fill="white" transform="translate(0 0.782715)"/>
</clipPath>
</defs>
</svg>
