<svg width="32" height="31" viewBox="0 0 32 31" fill="none" xmlns="http://www.w3.org/2000/svg">
<path d="M25.4769 17.0896C25.5288 16.7131 25.5548 16.324 25.5548 15.9098C25.5548 15.5081 25.5288 15.1065 25.4639 14.73L28.0994 12.7469C28.2129 12.6564 28.2905 12.5306 28.3189 12.391C28.3474 12.2514 28.3248 12.1066 28.2552 11.9812L25.7625 7.81424C25.6891 7.68818 25.572 7.5913 25.4318 7.54076C25.2916 7.49022 25.1374 7.48928 24.9966 7.53811L21.8938 8.74303C21.2446 8.26608 20.5566 7.86444 19.7906 7.56321L19.3232 4.3752C19.3002 4.23153 19.2247 4.10059 19.1104 4.00616C18.996 3.91174 18.8505 3.86009 18.7001 3.8606H13.7148C13.4032 3.8606 13.1566 4.07397 13.1046 4.3752L12.6373 7.56321C11.8713 7.86444 11.1703 8.27863 10.5341 8.74303L7.43131 7.53811C7.14569 7.4377 6.82113 7.53811 6.66534 7.81424L4.18569 11.9812C4.0299 12.2448 4.08183 12.5712 4.34148 12.7469L6.97692 14.73C6.91201 15.1065 6.86008 15.5207 6.86008 15.9098C6.86008 16.2989 6.88604 16.7131 6.95096 17.0896L4.31552 19.0727C4.20195 19.1632 4.12436 19.289 4.09595 19.4286C4.06754 19.5682 4.09008 19.713 4.15973 19.8383L6.65236 24.0053C6.80815 24.2814 7.13271 24.3693 7.41832 24.2814L10.5211 23.0765C11.1703 23.5535 11.8583 23.9551 12.6243 24.2563L13.0917 27.4444C13.1566 27.7456 13.4032 27.959 13.7148 27.959H18.7001C19.0117 27.959 19.2713 27.7456 19.3103 27.4444L19.7776 24.2563C20.5436 23.9551 21.2446 23.5535 21.8808 23.0765L24.9836 24.2814C25.2692 24.3819 25.5938 24.2814 25.7496 24.0053L28.2422 19.8383C28.398 19.5622 28.3331 19.2484 28.0864 19.0727L25.4769 17.0896ZM16.2074 20.4282C13.6369 20.4282 11.5338 18.3949 11.5338 15.9098C11.5338 13.4246 13.6369 11.3913 16.2074 11.3913C18.778 11.3913 20.8811 13.4246 20.8811 15.9098C20.8811 18.3949 18.778 20.4282 16.2074 20.4282Z" fill="#282828"/>
</svg>
