<svg width="32" height="31" viewBox="0 0 32 31" fill="none" xmlns="http://www.w3.org/2000/svg">
<path d="M25.3158 4.06237H22.3948V3.12103C22.3948 2.87137 22.2922 2.63194 22.1096 2.4554C21.927 2.27886 21.6793 2.17969 21.4211 2.17969C21.1629 2.17969 20.9152 2.27886 20.7326 2.4554C20.55 2.63194 20.4474 2.87137 20.4474 3.12103V4.06237H10.7106V3.12103C10.7106 2.87137 10.608 2.63194 10.4254 2.4554C10.2428 2.27886 9.99512 2.17969 9.73688 2.17969C9.47864 2.17969 9.23098 2.27886 9.04838 2.4554C8.86578 2.63194 8.7632 2.87137 8.7632 3.12103V4.06237H5.84214C5.32567 4.06237 4.83035 4.26073 4.46515 4.6138C4.09994 4.96687 3.89478 5.44574 3.89478 5.94506V24.7719C3.89478 25.2712 4.09994 25.7501 4.46515 26.1032C4.83035 26.4562 5.32567 26.6546 5.84214 26.6546H25.3158C25.8323 26.6546 26.3276 26.4562 26.6928 26.1032C27.058 25.7501 27.2632 25.2712 27.2632 24.7719V5.94506C27.2632 5.44574 27.058 4.96687 26.6928 4.6138C26.3276 4.26073 25.8323 4.06237 25.3158 4.06237ZM13.6316 21.9479C13.6316 22.1975 13.529 22.437 13.3464 22.6135C13.1638 22.79 12.9162 22.8892 12.6579 22.8892C12.3997 22.8892 12.152 22.79 11.9694 22.6135C11.7868 22.437 11.6842 22.1975 11.6842 21.9479V15.9398L11.1463 16.201C10.9152 16.3127 10.6476 16.3311 10.4025 16.2521C10.1573 16.1731 9.95468 16.0032 9.83912 15.7797C9.72356 15.5563 9.70454 15.2976 9.78625 15.0606C9.86797 14.8236 10.0437 14.6277 10.2748 14.516L12.2222 13.5746C12.3707 13.5028 12.5357 13.4689 12.7016 13.4761C12.8675 13.4833 13.0288 13.5314 13.17 13.6158C13.3112 13.7002 13.4278 13.8182 13.5086 13.9584C13.5894 14.0987 13.6317 14.2566 13.6316 14.4171V21.9479ZM20.4474 21.0065C20.7056 21.0065 20.9533 21.1057 21.1359 21.2822C21.3185 21.4588 21.4211 21.6982 21.4211 21.9479C21.4211 22.1975 21.3185 22.437 21.1359 22.6135C20.9533 22.79 20.7056 22.8892 20.4474 22.8892H16.5527C16.3718 22.8892 16.1946 22.8405 16.0408 22.7486C15.887 22.6567 15.7626 22.5252 15.6818 22.3689C15.6009 22.2125 15.5667 22.0374 15.5829 21.8633C15.5992 21.6892 15.6652 21.5229 15.7737 21.3831L19.2766 16.8682C19.3562 16.7656 19.4134 16.6484 19.4445 16.5237C19.4757 16.3991 19.4801 16.2696 19.4576 16.1432C19.4351 16.0168 19.3861 15.8961 19.3137 15.7887C19.2412 15.6813 19.1469 15.5893 19.0363 15.5184C18.9258 15.4475 18.8014 15.3992 18.6708 15.3764C18.5403 15.3536 18.4063 15.3569 18.2771 15.386C18.1479 15.4151 18.0262 15.4694 17.9195 15.5456C17.8128 15.6218 17.7233 15.7183 17.6566 15.8292C17.5945 15.9396 17.5102 16.037 17.4086 16.1154C17.3071 16.1939 17.1902 16.2519 17.0651 16.286C16.94 16.3201 16.809 16.3296 16.68 16.314C16.551 16.2984 16.4265 16.2579 16.3139 16.1951C16.2013 16.1322 16.1029 16.0482 16.0244 15.9479C15.946 15.8477 15.8891 15.7333 15.8571 15.6114C15.8252 15.4896 15.8187 15.3628 15.8383 15.2385C15.8578 15.1142 15.9029 14.995 15.9709 14.8878C16.2925 14.3497 16.7888 13.9292 17.3828 13.6915C17.9767 13.4538 18.6352 13.4121 19.2561 13.573C19.8771 13.7338 20.4258 14.0883 20.8172 14.5813C21.2086 15.0743 21.4209 15.6783 21.4211 16.2998C21.4232 16.9137 21.2161 17.5113 20.832 18.0001L18.5 21.0065H20.4474ZM5.84214 9.71043V5.94506H8.7632V6.8864C8.7632 7.13606 8.86578 7.37549 9.04838 7.55203C9.23098 7.72856 9.47864 7.82774 9.73688 7.82774C9.99512 7.82774 10.2428 7.72856 10.4254 7.55203C10.608 7.37549 10.7106 7.13606 10.7106 6.8864V5.94506H20.4474V6.8864C20.4474 7.13606 20.55 7.37549 20.7326 7.55203C20.9152 7.72856 21.1629 7.82774 21.4211 7.82774C21.6793 7.82774 21.927 7.72856 22.1096 7.55203C22.2922 7.37549 22.3948 7.13606 22.3948 6.8864V5.94506H25.3158V9.71043H5.84214Z" fill="#282828"/>
</svg>
