<svg width="20" height="20" viewBox="0 0 20 20" fill="none" xmlns="http://www.w3.org/2000/svg">
<path d="M15.625 1.25H6.25V18.75H15.625C16.1223 18.75 16.5992 18.5525 16.9508 18.2008C17.3025 17.8492 17.5 17.3723 17.5 16.875V3.125C17.5 2.62772 17.3025 2.15081 16.9508 1.79917C16.5992 1.44754 16.1223 1.25 15.625 1.25ZM13.75 15.625H10C9.83424 15.625 9.67527 15.5592 9.55806 15.4419C9.44085 15.3247 9.375 15.1658 9.375 15C9.375 14.8342 9.44085 14.6753 9.55806 14.5581C9.67527 14.4408 9.83424 14.375 10 14.375H13.75C13.9158 14.375 14.0747 14.4408 14.1919 14.5581C14.3092 14.6753 14.375 14.8342 14.375 15C14.375 15.1658 14.3092 15.3247 14.1919 15.4419C14.0747 15.5592 13.9158 15.625 13.75 15.625ZM15 13.125H8.75C8.58424 13.125 8.42527 13.0592 8.30806 12.9419C8.19085 12.8247 8.125 12.6658 8.125 12.5C8.125 12.3342 8.19085 12.1753 8.30806 12.0581C8.42527 11.9408 8.58424 11.875 8.75 11.875H15C15.1658 11.875 15.3247 11.9408 15.4419 12.0581C15.5592 12.1753 15.625 12.3342 15.625 12.5C15.625 12.6658 15.5592 12.8247 15.4419 12.9419C15.3247 13.0592 15.1658 13.125 15 13.125ZM15.625 7.5C15.625 7.99728 15.4275 8.47419 15.0758 8.82583C14.7242 9.17746 14.2473 9.375 13.75 9.375H10C9.50272 9.375 9.02581 9.17746 8.67417 8.82583C8.32254 8.47419 8.125 7.99728 8.125 7.5V6.25C8.125 5.75272 8.32254 5.27581 8.67417 4.92417C9.02581 4.57254 9.50272 4.375 10 4.375H13.75C14.2473 4.375 14.7242 4.57254 15.0758 4.92417C15.4275 5.27581 15.625 5.75272 15.625 6.25V7.5Z" fill="#57A5FF"/>
<path d="M5 1.25V18.75H4.375C3.87772 18.75 3.40081 18.5525 3.04917 18.2008C2.69754 17.8492 2.5 17.3723 2.5 16.875V3.125C2.5 2.62772 2.69754 2.15081 3.04917 1.79917C3.40081 1.44754 3.87772 1.25 4.375 1.25H5Z" fill="#57A5FF"/>
<path d="M13.75 5.625H10C9.65482 5.625 9.375 5.90482 9.375 6.25V7.5C9.375 7.84518 9.65482 8.125 10 8.125H13.75C14.0952 8.125 14.375 7.84518 14.375 7.5V6.25C14.375 5.90482 14.0952 5.625 13.75 5.625Z" fill="#57A5FF"/>
</svg>
