<svg width="14" height="14" viewBox="0 0 14 14" fill="none" xmlns="http://www.w3.org/2000/svg">
<path d="M1.91865 12.0814H12.8075C13.2085 12.0814 13.5335 12.4064 13.5335 12.8073C13.5335 13.2082 13.2085 13.5332 12.8075 13.5332H1.19272C0.791805 13.5332 0.466797 13.2082 0.466797 12.8073V1.19248C0.466797 0.791561 0.791805 0.466553 1.19272 0.466553C1.59364 0.466553 1.91865 0.791561 1.91865 1.19248V12.0814Z" fill="#8F57FF"/>
<path opacity="0.5" d="M4.62612 8.94829C4.35192 9.24077 3.89253 9.25559 3.60004 8.98139C3.30756 8.70718 3.29274 8.24779 3.56694 7.95531L6.28917 5.0516C6.55435 4.76874 6.99502 4.74421 7.28997 4.99589L9.43852 6.82932L12.2379 3.28346C12.4863 2.96879 12.9428 2.91509 13.2575 3.16351C13.5721 3.41194 13.6258 3.86842 13.3774 4.1831L10.1107 8.32087C9.85559 8.64407 9.383 8.69055 9.06977 8.42326L6.87453 6.54999L4.62612 8.94829Z" fill="#8F57FF"/>
</svg>
