<svg width="30" height="30" viewBox="0 0 30 30" fill="none" xmlns="http://www.w3.org/2000/svg">
<path d="M16.4998 4H11.4998C10.6158 4 9.76794 4.35119 9.14281 4.97631C8.51769 5.60143 8.1665 6.44928 8.1665 7.33333V9H9.83317V7.33333C9.83317 6.89131 10.0088 6.46738 10.3213 6.15482C10.6339 5.84226 11.0578 5.66667 11.4998 5.66667H16.4998C16.9419 5.66667 17.3658 5.84226 17.6783 6.15482C17.9909 6.46738 18.1665 6.89131 18.1665 7.33333V9H19.8332V7.33333C19.8332 6.44928 19.482 5.60143 18.8569 4.97631C18.2317 4.35119 17.3839 4 16.4998 4Z" fill="#57A5FF"/>
<path d="M24 13.1665C24 14.2716 23.561 15.3314 22.7796 16.1128C21.9982 16.8942 20.9384 17.3332 19.8333 17.3332H8.16667C7.29216 17.3332 6.43981 17.058 5.73037 16.5467C5.02093 16.0354 4.49036 15.3138 4.21382 14.4841C3.93728 13.6545 3.92878 12.7589 4.18953 11.9242C4.45028 11.0894 4.96706 10.3579 5.66667 9.83319C6.15872 9.46097 6.72842 9.20461 7.33333 9.08319C7.60734 9.02577 7.88671 8.99784 8.16667 8.99986H19.8333C20.1133 8.99784 20.3927 9.02577 20.6667 9.08319C21.2716 9.20461 21.8413 9.46097 22.3333 9.83319C22.8508 10.2213 23.2708 10.7246 23.5601 11.3031C23.8494 11.8817 24 12.5197 24 13.1665Z" fill="#57A5FF"/>
<path d="M19.8333 19C20.6099 18.9991 21.3785 18.843 22.094 18.5411C22.8095 18.2392 23.4575 17.7974 24 17.2417V19.8334C24 20.9384 23.561 21.9982 22.7796 22.7796C21.9982 23.561 20.9384 24 19.8333 24H8.16667C7.0616 24 6.00179 23.561 5.22039 22.7796C4.43899 21.9982 4 20.9384 4 19.8334V17.2417C4.54251 17.7974 5.19051 18.2392 5.906 18.5411C6.62149 18.843 7.39007 18.9991 8.16667 19H19.8333Z" fill="#57A5FF"/>
</svg>
